# Wavefront OBJ file made by Mineways version 7.15, http://mineways.com
# Minecraft world: test
# Terrain file name: C:\Users\Ester\Desktop\mineways\terrainExt.png
# Color scheme: Standard
# Tue Jun  9 01:51:26 2020

# Selection location min to max: -257, 3, 111 to -250, 255, 119
#   Non-empty selection location min to max: -257, 3, 111 to -250, 4, 119

# Set render type: Wavefront OBJ absolute indices
# Units for the model vertex data itself: meters

# 203 vertices, 202 faces (404 triangles), 86 blocks, 0 billboards/bits
# block dimensions: X=8 by Y=2 (height) by Z=9 blocks
# File type: Export full color texture patterns
# Texture output RGB: YES
# Texture output A: YES
# Texture output RGBA: YES
# Make groups objects: no
# Export separate objects: YES
# Individual blocks: no
#   Material per object: YES
#   Split by block type: no
# G3D full material: no
# Make Z the up direction instead of Y: no
# Create composite overlay faces: no
# Center model: YES
# Export lesser blocks: YES
# Fatten lesser blocks: no
# Create block faces at the borders: YES
# Make tree leaves solid: no
# Use biomes: no
# Rotate model 0.000000 degrees
# Scale model by making each block 1000 mm high
# Data operation options:
#   Fill air bubbles: no; Seal off entrances: no; Fill in isolated tunnels in base of model: no
#   Connect parts sharing an edge: no; Connect corner tips: no; Weld all shared edges: no
#   Delete floating objects: trees and parts smaller than 16 blocks: no
#   Hollow out bottom of model, making the walls 1000 mm thick: no; Superhollow: no
# Melt snow blocks: no
#   Debug: show separate parts as colors: no
#   Debug: show weld blocks in bright colors: no

# Full world path: C:\Users\Ester\AppData\Roaming\.minecraft\saves\test
# Full terrainExt.png path: C:\Users\Ester\Desktop\mineways\terrainExt.png
# Full current path: C:\Users\Ester\Desktop\mineways

mtllib test.mtl

o test__-257_3_111_to_-250_255_119
vn -1 0 0
vn 0 -1 0
vn 0 0 -1
vn 1 0 0
vn 0 1 0
vn 0 0 1
vn -0.707107 0 -0.707107
vn -0.707107 0 0.707107
vn 0.707107 0 -0.707107
vn 0.707107 0 0.707107
vn -0.707107 -0.707107 0
vn 0 -0.707107 -0.707107
vn 0.707107 -0.707107 0
vn 0 -0.707107 0.707107
vn -0.707107 0.707107 0
vn 0 0.707107 -0.707107
vn 0.707107 0.707107 0
vn 0 0.707107 0.707107
vn -0.92388 0 -0.382683
vn -0.92388 0 0.382683
vn 0.92388 0 -0.382683
vn 0.92388 0 0.382683
vn -0.382683 0 -0.92388
vn -0.382683 0 0.92388
vn 0.382683 0 -0.92388
vn 0.382683 0 0.92388
vn -0.397273 0.9177 0
vn 0.397273 -0.9177 0
vn 0.397273 0.9177 0
vn -0.397273 -0.9177 0
vn 0 0.9177 -0.397273
vn 0 -0.9177 0.397273
vn 0 0.9177 0.397273
vn 0 -0.9177 -0.397273
vn -0.440932 0.897541 0
vn 0.440932 -0.897541 0
vn 0.440932 0.897541 0
vn -0.440932 -0.897541 0
vn 0 0.897541 -0.440932
vn 0 -0.897541 0.440932
vn 0 0.897541 0.440932
vn 0 -0.897541 -0.440932
# grass_block_side_overlay
vt 0.353516 0.931641
vt 0.384766 0.931641
vt 0.384766 0.962891
vt 0.353516 0.962891
# dirt
vt 0.0722656 0.966797
vt 0.103516 0.966797
vt 0.103516 0.998047
vt 0.0722656 0.998047
# grass_block_top
vt 0.00195313 0.966797
vt 0.0332031 0.966797
vt 0.0332031 0.998047
vt 0.00195313 0.998047
# stone
vt 0.0371094 0.966797
vt 0.0683594 0.966797
vt 0.0683594 0.998047
vt 0.0371094 0.998047
# lime_wool
vt 0.212891 0.791016
vt 0.244141 0.791016
vt 0.244141 0.822266
vt 0.212891 0.822266
v -4 0 -4
v -4 0 -3
v -4 1 -3
v -4 1 -4
v -3 0 -3
v -3 0 -4
v -3 1 -4
v -3 1 -3
v -4 0 -2
v -4 1 -2
v -3 0 -2
v -3 1 -2
v -4 0 -1
v -4 1 -1
v -3 0 -1
v -3 1 -1
v -4 0 0
v -4 1 0
v -3 0 0
v -3 1 0
v -4 0 1
v -4 1 1
v -3 0 1
v -3 1 1
v -4 0 2
v -4 1 2
v -3 0 2
v -3 1 2
v -4 0 3
v -4 1 3
v -3 0 3
v -3 1 3
v -4 0 4
v -4 1 4
v -3 0 4
v -3 1 4
v -4 0 5
v -4 1 5
v -3 0 5
v -3 1 5
v -2 0 -3
v -2 0 -4
v -2 1 -4
v -2 1 -3
v -2 0 -2
v -2 1 -2
v -2 0 -1
v -2 1 -1
v -2 0 0
v -2 1 0
v -2 0 1
v -2 1 1
v -2 0 2
v -2 1 2
v -2 0 3
v -2 1 3
v -2 0 4
v -2 1 4
v -2 0 5
v -2 1 5
v -1 0 -3
v -1 0 -4
v -1 1 -4
v -1 1 -3
v -1 0 -2
v -1 1 -2
v -1 0 -1
v -2 2 -1
v -2 2 -2
v -1 2 -2
v -1 2 -1
v -1 0 0
v -2 2 0
v -1 2 0
v -1 0 1
v -2 2 1
v -1 1 1
v -1 1 0
v -1 2 1
v -1 0 2
v -2 2 2
v -1 2 2
v -1 1 2
v -1 0 3
v -1 1 3
v -1 0 4
v -1 1 4
v -1 0 5
v -1 1 5
v 0 0 -3
v 0 0 -4
v 0 1 -4
v 0 1 -3
v 0 0 -2
v 0 1 -2
v 0 0 -1
v 0 2 -2
v 0 2 -1
v 0 0 0
v 0 1 0
v 0 1 -1
v 0 2 0
v 0 0 1
v 0 1 1
v 0 0 2
v 0 2 1
v 0 2 2
v 0 1 2
v 0 0 3
v 0 1 3
v 0 0 4
v 0 1 4
v 0 0 5
v 0 1 5
v 1 0 -3
v 1 0 -4
v 1 1 -4
v 1 1 -3
v 1 0 -2
v 1 1 -2
v 1 0 -1
v 1 2 -2
v 1 2 -1
v 1 1 -1
v 1 0 0
v 1 1 0
v 1 0 1
v 1 2 0
v 1 2 1
v 1 0 2
v 1 2 2
v 1 1 2
v 1 0 3
v 1 1 3
v 1 0 4
v 1 1 4
v 1 0 5
v 1 1 5
v 2 0 -3
v 2 0 -4
v 2 1 -4
v 2 1 -3
v 2 0 -2
v 2 1 -2
v 2 0 -1
v 2 2 -2
v 2 1 -1
v 2 2 -1
v 2 0 0
v 2 1 0
v 2 2 0
v 2 0 1
v 2 1 1
v 2 2 1
v 2 0 2
v 2 1 2
v 2 2 2
v 2 0 3
v 2 1 3
v 2 0 4
v 2 1 4
v 2 0 5
v 2 1 5
v 3 0 -3
v 3 0 -4
v 3 1 -4
v 3 1 -3
v 3 0 -2
v 3 1 -2
v 3 0 -1
v 3 1 -1
v 3 0 0
v 3 1 0
v 3 0 1
v 3 1 1
v 3 0 2
v 3 1 2
v 3 0 3
v 3 1 3
v 3 0 4
v 3 1 4
v 3 0 5
v 3 1 5
v 4 0 -3
v 4 0 -4
v 4 1 -4
v 4 1 -3
v 4 0 -2
v 4 1 -2
v 4 0 -1
v 4 1 -1
v 4 0 0
v 4 1 0
v 4 0 1
v 4 1 1
v 4 0 2
v 4 1 2
v 4 0 3
v 4 1 3
v 4 0 4
v 4 1 4
v 4 0 5
v 4 1 5

g Stone
usemtl Stone
f 48/14/1 68/15/1 69/16/1 46/13/1
f 46/14/3 69/15/3 70/16/3 66/13/3
f 68/13/5 71/14/5 70/15/5 69/16/5
f 50/14/1 73/15/1 68/16/1 48/13/1
f 73/13/5 74/14/5 71/15/5 68/16/5
f 52/14/1 76/15/1 73/16/1 50/13/1
f 77/13/4 78/14/4 74/15/4 79/16/4
f 76/13/5 79/14/5 74/15/5 73/16/5
f 54/14/1 81/15/1 76/16/1 52/13/1
f 81/13/5 82/14/5 79/15/5 76/16/5
f 54/13/6 83/14/6 82/15/6 81/16/6
f 66/14/3 70/15/3 97/16/3 95/13/3
f 71/13/5 98/14/5 97/15/5 70/16/5
f 77/14/3 79/15/3 106/16/3 104/13/3
f 82/13/5 107/14/5 106/15/5 79/16/5
f 83/13/6 108/14/6 107/15/6 82/16/6
f 95/14/3 97/15/3 122/16/3 120/13/3
f 98/13/5 123/14/5 122/15/5 97/16/5
f 101/13/6 124/14/6 123/15/6 98/16/6
f 107/13/5 131/14/5 129/15/5 106/16/5
f 108/13/6 132/14/6 131/15/6 107/16/6
f 120/14/3 122/15/3 146/16/3 144/13/3
f 147/13/4 144/14/4 146/15/4 148/16/4
f 123/13/5 148/14/5 146/15/5 122/16/5
f 126/14/1 128/15/1 123/16/1 124/13/1
f 150/13/4 147/14/4 148/15/4 151/16/4
f 128/13/5 151/14/5 148/15/5 123/16/5
f 153/13/4 150/14/4 151/15/4 154/16/4
f 129/13/5 154/14/5 151/15/5 128/16/5
f 156/13/4 153/14/4 154/15/4 157/16/4
f 131/13/5 157/14/5 154/15/5 129/16/5
f 132/13/6 156/14/6 157/15/6 131/16/6

g Grass_Block
usemtl Grass_Block
f 2/2/1 3/3/1 4/4/1 1/1/1
f 2/7/2 1/6/2 6/5/2 5/8/2
f 1/2/3 4/3/3 7/4/3 6/1/3
f 3/11/5 8/12/5 7/9/5 4/10/5
f 9/2/1 10/3/1 3/4/1 2/1/1
f 9/7/2 2/6/2 5/5/2 11/8/2
f 10/11/5 12/12/5 8/9/5 3/10/5
f 13/2/1 14/3/1 10/4/1 9/1/1
f 13/8/2 9/7/2 11/6/2 15/5/2
f 14/12/5 16/9/5 12/10/5 10/11/5
f 17/2/1 18/3/1 14/4/1 13/1/1
f 17/6/2 13/5/2 15/8/2 19/7/2
f 18/10/5 20/11/5 16/12/5 14/9/5
f 21/2/1 22/3/1 18/4/1 17/1/1
f 21/8/2 17/7/2 19/6/2 23/5/2
f 22/12/5 24/9/5 20/10/5 18/11/5
f 25/2/1 26/3/1 22/4/1 21/1/1
f 25/8/2 21/7/2 23/6/2 27/5/2
f 26/12/5 28/9/5 24/10/5 22/11/5
f 29/2/1 30/3/1 26/4/1 25/1/1
f 29/6/2 25/5/2 27/8/2 31/7/2
f 30/10/5 32/11/5 28/12/5 26/9/5
f 33/2/1 34/3/1 30/4/1 29/1/1
f 33/6/2 29/5/2 31/8/2 35/7/2
f 34/10/5 36/11/5 32/12/5 30/9/5
f 37/2/1 38/3/1 34/4/1 33/1/1
f 37/7/2 33/6/2 35/5/2 39/8/2
f 38/11/5 40/12/5 36/9/5 34/10/5
f 37/1/6 39/2/6 40/3/6 38/4/6
f 5/5/2 6/8/2 42/7/2 41/6/2
f 6/2/3 7/3/3 43/4/3 42/1/3
f 8/9/5 44/10/5 43/11/5 7/12/5
f 11/6/2 5/5/2 41/8/2 45/7/2
f 12/10/5 46/11/5 44/12/5 8/9/5
f 15/6/2 11/5/2 45/8/2 47/7/2
f 16/10/5 48/11/5 46/12/5 12/9/5
f 19/6/2 15/5/2 47/8/2 49/7/2
f 20/10/5 50/11/5 48/12/5 16/9/5
f 23/7/2 19/6/2 49/5/2 51/8/2
f 24/11/5 52/12/5 50/9/5 20/10/5
f 27/8/2 23/7/2 51/6/2 53/5/2
f 28/12/5 54/9/5 52/10/5 24/11/5
f 31/6/2 27/5/2 53/8/2 55/7/2
f 32/10/5 56/11/5 54/12/5 28/9/5
f 35/5/2 31/8/2 55/7/2 57/6/2
f 36/9/5 58/10/5 56/11/5 32/12/5
f 39/5/2 35/8/2 57/7/2 59/6/2
f 40/9/5 60/10/5 58/11/5 36/12/5
f 39/1/6 59/2/6 60/3/6 40/4/6
f 41/8/2 42/7/2 62/6/2 61/5/2
f 42/2/3 43/3/3 63/4/3 62/1/3
f 44/12/5 64/9/5 63/10/5 43/11/5
f 45/6/2 41/5/2 61/8/2 65/7/2
f 46/10/5 66/11/5 64/12/5 44/9/5
f 49/7/2 47/6/2 67/5/2 72/8/2
f 53/8/2 51/7/2 75/6/2 80/5/2
f 55/8/2 53/7/2 80/6/2 84/5/2
f 56/12/5 85/9/5 83/10/5 54/11/5
f 57/7/2 55/6/2 84/5/2 86/8/2
f 58/11/5 87/12/5 85/9/5 56/10/5
f 59/6/2 57/5/2 86/8/2 88/7/2
f 60/10/5 89/11/5 87/12/5 58/9/5
f 59/1/6 88/2/6 89/3/6 60/4/6
f 61/6/2 62/5/2 91/8/2 90/7/2
f 62/2/3 63/3/3 92/4/3 91/1/3
f 64/10/5 93/11/5 92/12/5 63/9/5
f 65/6/2 61/5/2 90/8/2 94/7/2
f 66/10/5 95/11/5 93/12/5 64/9/5
f 75/8/2 72/7/2 99/6/2 103/5/2
f 77/12/5 104/9/5 100/10/5 78/11/5
f 84/5/2 80/8/2 105/7/2 109/6/2
f 85/9/5 110/10/5 108/11/5 83/12/5
f 86/7/2 84/6/2 109/5/2 111/8/2
f 87/11/5 112/12/5 110/9/5 85/10/5
f 88/8/2 86/7/2 111/6/2 113/5/2
f 89/12/5 114/9/5 112/10/5 87/11/5
f 88/1/6 113/2/6 114/3/6 89/4/6
f 90/5/2 91/8/2 116/7/2 115/6/2
f 91/2/3 92/3/3 117/4/3 116/1/3
f 93/9/5 118/10/5 117/11/5 92/12/5
f 94/7/2 90/6/2 115/5/2 119/8/2
f 95/11/5 120/12/5 118/9/5 93/10/5
f 99/5/2 96/8/2 121/7/2 125/6/2
f 100/9/5 126/10/5 124/11/5 101/12/5
f 105/5/2 103/8/2 127/7/2 130/6/2
f 109/6/2 105/5/2 130/8/2 133/7/2
f 110/10/5 134/11/5 132/12/5 108/9/5
f 111/8/2 109/7/2 133/6/2 135/5/2
f 112/12/5 136/9/5 134/10/5 110/11/5
f 113/8/2 111/7/2 135/6/2 137/5/2
f 114/12/5 138/9/5 136/10/5 112/11/5
f 113/1/6 137/2/6 138/3/6 114/4/6
f 115/6/2 116/5/2 140/8/2 139/7/2
f 116/2/3 117/3/3 141/4/3 140/1/3
f 118/10/5 142/11/5 141/12/5 117/9/5
f 119/6/2 115/5/2 139/8/2 143/7/2
f 120/10/5 144/11/5 142/12/5 118/9/5
f 121/7/2 119/6/2 143/5/2 145/8/2
f 125/5/2 121/8/2 145/7/2 149/6/2
f 127/8/2 125/7/2 149/6/2 152/5/2
f 133/6/2 130/5/2 155/8/2 158/7/2
f 134/10/5 159/11/5 156/12/5 132/9/5
f 135/5/2 133/8/2 158/7/2 160/6/2
f 136/9/5 161/10/5 159/11/5 134/12/5
f 137/6/2 135/5/2 160/8/2 162/7/2
f 138/10/5 163/11/5 161/12/5 136/9/5
f 137/1/6 162/2/6 163/3/6 138/4/6
f 139/7/2 140/6/2 165/5/2 164/8/2
f 140/2/3 141/3/3 166/4/3 165/1/3
f 142/11/5 167/12/5 166/9/5 141/10/5
f 143/6/2 139/5/2 164/8/2 168/7/2
f 144/10/5 169/11/5 167/12/5 142/9/5
f 145/7/2 143/6/2 168/5/2 170/8/2
f 147/11/5 171/12/5 169/9/5 144/10/5
f 149/8/2 145/7/2 170/6/2 172/5/2
f 150/12/5 173/9/5 171/10/5 147/11/5
f 152/8/2 149/7/2 172/6/2 174/5/2
f 153/12/5 175/9/5 173/10/5 150/11/5
f 155/7/2 152/6/2 174/5/2 176/8/2
f 156/11/5 177/12/5 175/9/5 153/10/5
f 158/6/2 155/5/2 176/8/2 178/7/2
f 159/10/5 179/11/5 177/12/5 156/9/5
f 160/7/2 158/6/2 178/5/2 180/8/2
f 161/11/5 181/12/5 179/9/5 159/10/5
f 162/6/2 160/5/2 180/8/2 182/7/2
f 163/10/5 183/11/5 181/12/5 161/9/5
f 162/1/6 182/2/6 183/3/6 163/4/6
f 164/6/2 165/5/2 185/8/2 184/7/2
f 165/2/3 166/3/3 186/4/3 185/1/3
f 184/1/4 185/2/4 186/3/4 187/4/4
f 167/10/5 187/11/5 186/12/5 166/9/5
f 168/8/2 164/7/2 184/6/2 188/5/2
f 188/1/4 184/2/4 187/3/4 189/4/4
f 169/12/5 189/9/5 187/10/5 167/11/5
f 170/6/2 168/5/2 188/8/2 190/7/2
f 190/1/4 188/2/4 189/3/4 191/4/4
f 171/10/5 191/11/5 189/12/5 169/9/5
f 172/7/2 170/6/2 190/5/2 192/8/2
f 192/1/4 190/2/4 191/3/4 193/4/4
f 173/11/5 193/12/5 191/9/5 171/10/5
f 174/5/2 172/8/2 192/7/2 194/6/2
f 194/1/4 192/2/4 193/3/4 195/4/4
f 175/9/5 195/10/5 193/11/5 173/12/5
f 176/6/2 174/5/2 194/8/2 196/7/2
f 196/1/4 194/2/4 195/3/4 197/4/4
f 177/10/5 197/11/5 195/12/5 175/9/5
f 178/5/2 176/8/2 196/7/2 198/6/2
f 198/1/4 196/2/4 197/3/4 199/4/4
f 179/9/5 199/10/5 197/11/5 177/12/5
f 180/5/2 178/8/2 198/7/2 200/6/2
f 200/1/4 198/2/4 199/3/4 201/4/4
f 181/9/5 201/10/5 199/11/5 179/12/5
f 182/5/2 180/8/2 200/7/2 202/6/2
f 202/1/4 200/2/4 201/3/4 203/4/4
f 183/9/5 203/10/5 201/11/5 181/12/5
f 182/1/6 202/2/6 203/3/6 183/4/6

g Dirt
usemtl Dirt
f 47/5/2 45/8/2 65/7/2 67/6/2
f 51/5/2 49/8/2 72/7/2 75/6/2
f 67/5/2 65/8/2 94/7/2 96/6/2
f 72/8/2 67/7/2 96/6/2 99/5/2
f 80/7/2 75/6/2 103/5/2 105/8/2
f 96/6/2 94/5/2 119/8/2 121/7/2
f 103/6/2 99/5/2 125/8/2 127/7/2
f 130/7/2 127/6/2 152/5/2 155/8/2

g Wool
usemtl Wool
f 100/17/4 101/18/4 98/19/4 102/20/4
f 74/17/5 102/18/5 98/19/5 71/20/5
f 78/17/6 100/18/6 102/19/6 74/20/6
f 104/18/1 106/19/1 102/20/1 100/17/1
f 100/18/3 102/19/3 128/20/3 126/17/3
f 106/17/5 129/18/5 128/19/5 102/20/5
